<?xml version="1.0" encoding="utf-8" ?><svg xmlns="http://www.w3.org/2000/svg" xmlns:xlink="http://www.w3.org/1999/xlink" width="64" height="64" viewBox="0 0 64 64"><path fill="#022F24" transform="scale(0.03125 0.03125)" d="M183.439 155.643C213.975 174.248 245.419 193.226 277.832 207.897C408.136 266.875 563.81 291.706 703.933 257.433C822.819 228.354 934.912 164.788 1021.64 79.0957C1024.35 77.3935 1025.19 76.4334 1027.66 78.2347C1043.32 89.6659 1056.48 104.428 1071.3 117.125C1299.11 312.22 1613.85 318.236 1863.42 159.844C1865.14 158.75 1866.89 159.46 1868.52 159.935C1874.98 172.55 1887.13 293.26 1889.3 315.125C1899.02 413.475 1911.51 519.862 1913.76 618.423C1916.58 781.099 1892.77 943.14 1843.28 1098.13C1839.01 1111.34 1814.8 1185.92 1807.35 1190.51C1802 1187.2 1746.71 1055.55 1740.04 1038.34C1730.08 1012.4 1720.65 986.251 1711.77 959.92C1709.78 954.412 1708.19 949.519 1706.48 943.923L1704.47 944.354C1702.16 948.626 1702.49 953.675 1703.05 958.403C1707.6 978.319 1698.17 1015.32 1692.81 1036.09C1692.19 1038.73 1691.52 1041.37 1691.03 1044.04C1695.29 1062.75 1705.85 1081.19 1712.9 1098.99C1719.19 1114.86 1724.94 1130.95 1731.28 1146.8C1742.55 1174.27 1754.33 1201.53 1766.63 1228.56C1781.14 1260.22 1795.39 1291.81 1811.84 1322.52C1813.18 1325.03 1813.9 1328.23 1814.05 1331.08L1812.89 1332.49C1810.3 1332.47 1794.43 1323.1 1790.8 1320.99C1745.04 1294.35 1695.11 1277.69 1643.85 1265.22C1629.57 1261.75 1612.9 1261.23 1598.2 1257.68C1594.46 1264.15 1567.47 1312.33 1568.09 1315.82C1569.32 1316.3 1570.51 1316.85 1571.76 1317.12C1586.01 1317.58 1611.65 1322.45 1626.28 1325.06C1720.38 1341.86 1792.42 1375.97 1870.95 1428.51C1865.44 1436.55 1864.93 1431.74 1861.65 1436.67C1804.64 1415.42 1638.01 1370.42 1581.88 1390.67C1575.8 1392.86 1567.32 1395.44 1561.6 1397.99C1548.85 1403.7 1546.99 1408.28 1532.59 1410.82C1529.8 1411.87 1526.3 1413.41 1523.48 1413.8L1522.1 1415.04L1505.61 1420C1498.49 1423.87 1493.03 1426.12 1488.29 1432.78L1487.92 1435.29C1492.15 1439.86 1500.39 1437.33 1506.18 1436.33C1509.18 1435.41 1525.75 1433.45 1529.84 1432.9C1558.62 1430.3 1587.67 1428.01 1616.52 1430.73C1643.47 1433.27 1672.11 1434.03 1698.24 1441.55C1545.43 1633.39 1354.02 1790.98 1136.41 1904.11C1113.72 1916.27 1090.92 1928.22 1068.01 1939.96C1054.47 1946.88 1037.23 1956.05 1022.93 1960.91C990.186 1947.33 939.615 1919.08 906.973 1901.29C840.078 1865.2 775.205 1825.49 712.644 1782.32C602.428 1704.26 501.78 1613.5 412.777 1511.92C400.678 1497.93 388.493 1484.01 376.223 1470.17C370.56 1463.78 357.969 1450.5 353.842 1443.87C353.864 1440.51 353.356 1442.03 355.787 1439.29C361.396 1437.05 371.427 1436.38 377.71 1435.55C412.594 1430.95 446.463 1429.23 481.585 1430.79C508.451 1431.99 532.209 1436.96 558.686 1440.26C561.111 1440.57 564.393 1440.66 566.534 1439.31L566.624 1438.43C553.77 1425.74 542.955 1423.48 526.772 1416.61C516.151 1412.18 506.265 1408.25 496.743 1401.62C488.1 1397.53 458.671 1389.62 448.876 1386.74C445.374 1387.19 429.692 1386.98 424.782 1387.12C409.32 1387.54 393.888 1388.72 378.541 1390.65C320.787 1398.43 263.82 1411.22 208.285 1428.88C190.15 1434.52 172.202 1441.1 154.108 1447.05C165.591 1436.18 185.102 1425.71 198.704 1416.89C263.559 1374.85 328.044 1345.29 403.828 1328.82C417.238 1325.91 475.225 1318.23 482.274 1314.67C473.968 1301.68 465 1290.05 458.852 1275.82C456.291 1269.9 453.26 1263.9 450.527 1258.03C385.792 1264.6 322.381 1287.2 264.07 1315.43C253.806 1320.4 243.481 1326.39 232.803 1330.26L231.347 1330.78C269.162 1258.89 300.118 1183.64 331.338 1108.74C337.922 1092.94 348.28 1070.15 350.248 1053.78C342.661 1016.78 346.728 985.842 340.916 952.711L338.456 953.577C318.508 1015.13 293.553 1076.84 267.113 1136C262.492 1146.34 248.009 1184.85 241.872 1191.05L240.262 1191.26C233.809 1184.03 218.177 1136.36 213.917 1123.98C170.63 996.756 145.135 864.158 138.156 729.951C135.364 682.628 134.082 630.779 136.787 583.594C143.435 475.05 153.786 366.765 167.822 258.927C170.58 236.533 176.786 173.943 183.439 155.643Z"/><path fill="#02893F" transform="scale(0.03125 0.03125)" d="M1025.64 384.637C1045.6 394.971 1061.84 417.336 1079.33 431.226C1120.37 463.827 1162.76 495.533 1207.74 522.519C1213.58 526.023 1225.98 526.677 1228.26 533.359C1227.04 536.308 1226.65 536.421 1224.47 538.667C1239.66 532.73 1253.4 524.657 1268.47 518.566C1319.63 498.001 1373.41 484.69 1428.26 479.022C1421.01 528.648 1422.03 584.086 1425.6 633.999C1436.86 791.597 1482.52 939.223 1547.08 1082.84C1423.89 1066.85 1330.2 1092.19 1229.93 1167.96C1198.85 1191.44 1151.94 1237.27 1130.31 1269.99C1124.81 1276.39 1110.73 1295.62 1107.54 1303.07C1098.03 1316.89 1060.98 1381.37 1061.59 1395.78L1060.61 1399.5L1061.34 1399.78C1063.76 1396.98 1068.12 1391.23 1071.16 1389.88L1072.08 1391.26C1072.24 1396.27 1071.43 1397.63 1069.77 1402.52C1071.9 1406.63 1073.94 1411.25 1075.91 1415.47C1072.54 1421.55 1066.12 1426.05 1070.32 1431.57C1070.69 1437.23 1030.65 1482.66 1024.23 1490.24C1016.83 1482.01 997.877 1459.67 991.719 1451.64C992.233 1449.54 992.705 1447.43 993.136 1445.31C990.082 1440.07 983.508 1424.84 982.816 1418.65C982.08 1412.08 986.03 1409.04 990.218 1404.5C990.609 1400.25 988.7 1398.08 986.648 1393.73C983.461 1387.08 977.192 1376.84 973.388 1370.19L977.254 1366.44C972.101 1353.97 964.733 1339.13 957.707 1327.89C936.326 1286.04 901.067 1244.97 869.071 1210.53L860.105 1201.58C855.533 1197.28 847.343 1189.29 842.135 1186.48C837.173 1181.3 828.359 1174.13 822.444 1169.55C720.325 1090.61 627.678 1068.33 502.063 1082.48C574.881 927.78 624.444 745.356 627.592 573.431C628.094 545.979 626.329 507.046 621.761 479.928C681.711 485.532 734.561 499.797 789.887 522.711C797.031 526.023 809.628 532.631 817.008 532.672C820.947 525.315 830.073 529.393 841.193 520.844C850.347 516.583 865.311 506.075 874.529 500.292C909.686 478.237 943.059 453.853 974.869 427.199C990.399 414.186 1008.29 393.826 1025.64 384.637Z"/><path fill="white" transform="scale(0.03125 0.03125)" d="M1025.64 384.637C1045.6 394.971 1061.84 417.336 1079.33 431.226C1120.37 463.827 1162.76 495.533 1207.74 522.519C1213.58 526.023 1225.98 526.677 1228.26 533.359C1227.04 536.308 1226.65 536.421 1224.47 538.667C1217.25 540.178 1196.59 554.707 1190.11 559.057C1129.61 599.706 1077.96 656.052 1048.37 723.104C1042.48 736.447 1036.7 751.529 1033.36 765.695C1031.61 773.102 1031.25 781.733 1029.23 789.153C1028.43 792.076 1027.7 793.709 1025.53 795.855L1023.43 795.746C1019.42 791.674 1017.12 764.719 1013.29 753.345C1003.94 725.565 990.746 702.466 976.543 677.341C953.982 637.431 872.141 553.335 828.871 542.536L827.547 542.217C823.656 537.283 822.338 535.942 817.008 532.672C820.947 525.315 830.073 529.393 841.193 520.844C850.347 516.583 865.311 506.075 874.529 500.292C909.686 478.237 943.059 453.853 974.869 427.199C990.399 414.186 1008.29 393.826 1025.64 384.637Z"/><path fill="#8FD07A" transform="scale(0.03125 0.03125)" d="M977.254 1366.44C979.468 1371.43 988.62 1389.56 986.648 1393.73C983.461 1387.08 977.192 1376.84 973.388 1370.19L977.254 1366.44Z"/><path fill="#113F32" transform="scale(0.03125 0.03125)" d="M993.598 1409.63C999.624 1415.51 1013.04 1441.82 1015.25 1450.25C1008.97 1443.23 997.427 1418.6 993.598 1409.63Z"/><path fill="#0C5B38" transform="scale(0.03125 0.03125)" d="M1059.32 1401.81C1060.06 1406.44 1044.03 1436.34 1040.46 1441.36C1039.01 1436.3 1055.79 1408.29 1059.32 1401.81Z"/><path fill="#022F24" transform="scale(0.03125 0.03125)" d="M183.439 155.643C213.975 174.248 245.419 193.226 277.832 207.897C408.136 266.875 563.81 291.706 703.933 257.433C822.819 228.354 934.912 164.788 1021.64 79.0957C1024.35 77.3935 1025.19 76.4334 1027.66 78.2347C1043.32 89.6659 1056.48 104.428 1071.3 117.125C1299.11 312.22 1613.85 318.236 1863.42 159.844C1865.14 158.75 1866.89 159.46 1868.52 159.935C1874.98 172.55 1887.13 293.26 1889.3 315.125C1899.02 413.475 1911.51 519.862 1913.76 618.423C1916.58 781.099 1892.77 943.14 1843.28 1098.13C1839.01 1111.34 1814.8 1185.92 1807.35 1190.51C1802 1187.2 1746.71 1055.55 1740.04 1038.34C1730.08 1012.4 1720.65 986.251 1711.77 959.92C1709.78 954.412 1708.19 949.519 1706.48 943.923C1706.28 942.616 1706.12 941.295 1705.9 939.991C1704.65 932.429 1719.22 882.632 1721.82 870.119C1733.46 815.774 1740.69 760.578 1743.45 705.068C1746.65 633.318 1743.22 561.425 1733.2 490.306C1729.34 462.571 1721.97 430.14 1718.85 404.23L1718.72 403.133C1713.91 402.982 1713.15 403.607 1708.52 405.486C1657.85 420.88 1612.43 432.568 1559.46 439.845C1412.49 459.623 1263.03 432.021 1132.82 361.048C1095.15 340.788 1059.11 317.638 1025.02 291.806C875.294 409.854 684.586 463.14 495.354 439.803C434.803 432.114 388.972 420.385 331.161 402.715C296.58 582.553 291.78 758.558 344.195 936.075C342.917 940.146 339.256 949.241 340.916 952.711L338.456 953.577C318.508 1015.13 293.553 1076.84 267.113 1136C262.492 1146.34 248.009 1184.85 241.872 1191.05L240.262 1191.26C233.809 1184.03 218.177 1136.36 213.917 1123.98C170.63 996.756 145.135 864.158 138.156 729.951C135.364 682.628 134.082 630.779 136.787 583.594C143.435 475.05 153.786 366.765 167.822 258.927C170.58 236.533 176.786 173.943 183.439 155.643Z"/><path fill="#8FD07A" transform="scale(0.03125 0.03125)" d="M1025.02 291.806C1059.11 317.638 1095.15 340.788 1132.82 361.048C1263.03 432.021 1412.49 459.623 1559.46 439.845C1612.43 432.568 1657.85 420.88 1708.52 405.486C1713.15 403.607 1713.91 402.982 1718.72 403.133L1718.85 404.23C1721.97 430.14 1729.34 462.571 1733.2 490.306C1743.22 561.425 1746.65 633.318 1743.45 705.068C1740.69 760.578 1733.46 815.774 1721.82 870.119C1719.22 882.632 1704.65 932.429 1705.9 939.991C1706.12 941.295 1706.28 942.616 1706.48 943.923L1704.47 944.354C1702.16 948.626 1702.49 953.675 1703.05 958.403C1707.6 978.319 1698.17 1015.32 1692.81 1036.09C1692.19 1038.73 1691.52 1041.37 1691.03 1044.04C1687.56 1040.09 1683.77 1027.69 1682.13 1022.44C1622.52 873.549 1601.5 712.477 1604.07 553.046C1568.18 565.307 1514.28 580.607 1476.17 583.296C1476.82 616.115 1480.04 644.946 1483.97 677.574C1499.03 802.54 1534.8 921.407 1583.78 1037.16C1594.46 1062.35 1605.66 1087.31 1617.38 1112.03C1625.15 1128.33 1634.75 1146.66 1641.82 1162.92C1607.33 1154.74 1584.92 1146.41 1548.68 1141.55C1435.03 1126.31 1325.1 1158.66 1228.41 1217.77C1199.67 1235.34 1185.81 1250.35 1161.23 1267.85C1164.44 1262.31 1171.81 1254.52 1176.38 1249.67C1162.91 1256.01 1168 1258.96 1152.53 1261.22L1151 1262.64C1151.47 1264.9 1151.59 1265.1 1152.55 1267.21C1150.26 1269.43 1151.57 1268.51 1147.94 1269.16C1142.71 1268.95 1143.27 1271.45 1140.65 1275.96C1138.72 1274.28 1138.97 1274.08 1138.35 1271.51C1139.36 1268.53 1139.73 1266.33 1142.06 1264.29C1143.19 1265.47 1144.1 1266.71 1145 1268.07C1149.02 1264.03 1144.37 1259.79 1147.76 1254.64L1149.74 1254.33L1150.42 1256.36L1152.07 1257.05L1153.23 1256.05C1153.68 1252.63 1152.91 1251.13 1149.99 1249.68L1148.31 1250.46C1144.8 1255.71 1136.01 1267.21 1130.31 1269.99C1151.94 1237.27 1198.85 1191.44 1229.93 1167.96C1330.2 1092.19 1423.89 1066.85 1547.08 1082.84C1482.52 939.223 1436.86 791.597 1425.6 633.999C1422.03 584.086 1421.01 528.648 1428.26 479.022C1373.41 484.69 1319.63 498.001 1268.47 518.566C1253.4 524.657 1239.66 532.73 1224.47 538.667C1226.65 536.421 1227.04 536.308 1228.26 533.359C1225.98 526.677 1213.58 526.023 1207.74 522.519C1162.76 495.533 1120.37 463.827 1079.33 431.226C1061.84 417.336 1045.6 394.971 1025.64 384.637C1008.29 393.826 990.399 414.186 974.869 427.199C943.059 453.853 909.686 478.237 874.529 500.292C865.311 506.075 850.347 516.583 841.193 520.844C830.073 529.393 820.947 525.315 817.008 532.672C809.628 532.631 797.031 526.023 789.887 522.711C734.561 499.797 681.711 485.532 621.761 479.928C626.329 507.046 628.094 545.979 627.592 573.431C624.444 745.356 574.881 927.78 502.063 1082.48C627.678 1068.33 720.325 1090.61 822.444 1169.55C828.359 1174.13 837.173 1181.3 842.135 1186.48C847.343 1189.29 855.533 1197.28 860.105 1201.58C855.544 1202.18 855.987 1201.42 852.918 1203.87L851.303 1208.58C847.532 1209.08 847.391 1209.33 843.639 1208.19C839.923 1210.96 841.07 1209.26 839.435 1213C840.635 1215.05 839.808 1214.55 841.56 1215.24L844.036 1219.67C841.616 1224.06 836.394 1221.98 832.801 1220.18C831.358 1217.5 831.852 1216.58 832.224 1213.49L829.806 1212.31C824.87 1215.05 823.78 1214.21 822.963 1219.83C814.143 1214.28 805.23 1208.87 796.227 1203.62C679.1 1136.17 566.843 1120.69 436.946 1155.64C446.361 1136.92 435.333 1143.38 427.068 1138.36C426.015 1135.27 425.944 1136.72 427.039 1133.86C430.869 1131.21 432.938 1130.54 433.699 1126.45C432.529 1122.03 432.228 1121.57 429.212 1118.12C435.214 1102.43 444.52 1084.48 451.726 1068.97C460.772 1049.24 469.301 1029.28 477.303 1009.1C535.723 861.742 564.594 741.047 572.835 583.424C533.274 580.144 481.016 565.366 443.697 553.165C448.574 706.979 423.852 861.158 370.878 1005.63C367.723 1014.23 355.815 1051.64 351.243 1056.23L350.248 1053.78C342.661 1016.78 346.728 985.842 340.916 952.711C339.256 949.241 342.917 940.146 344.195 936.075C291.78 758.558 296.58 582.553 331.161 402.715C388.972 420.385 434.803 432.114 495.354 439.803C684.586 463.14 875.294 409.854 1025.02 291.806Z"/><path fill="#9AD587" transform="scale(0.03125 0.03125)" d="M789.887 522.711C799.806 511.359 813.78 521.407 825.452 522.591C827.794 522.828 836.701 521.033 840.141 520.882L841.193 520.844C830.073 529.393 820.947 525.315 817.008 532.672C809.628 532.631 797.031 526.023 789.887 522.711Z"/><path fill="#A8DB97" transform="scale(0.03125 0.03125)" d="M843.639 1208.19L845.993 1206.07C847.078 1199.06 840.231 1201.71 836.854 1196.09C837.254 1190.83 837.557 1189.39 834.894 1184.79C837.098 1185.52 838.115 1185.84 840.366 1186.2L842.135 1186.48C847.343 1189.29 855.533 1197.28 860.105 1201.58C855.544 1202.18 855.987 1201.42 852.918 1203.87L851.303 1208.58C847.532 1209.08 847.391 1209.33 843.639 1208.19Z"/><path fill="#9AD587" transform="scale(0.03125 0.03125)" d="M1682.13 1022.44C1683.03 1018 1682.26 1017.71 1684.95 1015.56C1690.49 1017.08 1692.48 1024.4 1692.61 1029.51C1692.69 1031.7 1692.76 1033.89 1692.81 1036.09C1692.19 1038.73 1691.52 1041.37 1691.03 1044.04C1687.56 1040.09 1683.77 1027.69 1682.13 1022.44Z"/><path fill="#A8DB97" transform="scale(0.03125 0.03125)" d="M1708.52 405.486C1713.15 403.607 1713.91 402.982 1718.72 403.133C1717.92 409.334 1717.64 414.041 1710.08 414.421C1706.83 412.634 1707.98 413.893 1706.48 410.558C1707.05 407.813 1707.09 407.928 1708.52 405.486Z"/><path fill="#022F24" transform="scale(0.03125 0.03125)" d="M1529.84 1432.9C1558.62 1430.3 1587.67 1428.01 1616.52 1430.73C1643.47 1433.27 1672.11 1434.03 1698.24 1441.55C1545.43 1633.39 1354.02 1790.98 1136.41 1904.11C1113.72 1916.27 1090.92 1928.22 1068.01 1939.96C1054.47 1946.88 1037.23 1956.05 1022.93 1960.91C990.186 1947.33 939.615 1919.08 906.973 1901.29C840.078 1865.2 775.205 1825.49 712.644 1782.32C602.428 1704.26 501.78 1613.5 412.777 1511.92C400.678 1497.93 388.493 1484.01 376.223 1470.17C370.56 1463.78 357.969 1450.5 353.842 1443.87C353.864 1440.51 353.356 1442.03 355.787 1439.29C361.396 1437.05 371.427 1436.38 377.71 1435.55C412.594 1430.95 446.463 1429.23 481.585 1430.79C508.451 1431.99 532.209 1436.96 558.686 1440.26C561.111 1440.57 564.393 1440.66 566.534 1439.31L566.624 1438.43L568.489 1437.73L568.258 1433.75C573.596 1428.38 591.426 1444.65 595.123 1449.64C599.841 1456 602.402 1457.02 600.576 1465.08C671.664 1535.81 741.876 1597.2 826.552 1651.87C891.139 1693.56 955.02 1726.04 1024.09 1759.12C1156.31 1696.6 1271.66 1627.88 1379.84 1528.06C1408.91 1501.24 1432.62 1476.88 1459.87 1448.38C1471.28 1445.65 1482.52 1443.7 1493.63 1439.97C1496.99 1438.83 1504.43 1439.11 1508.46 1436.95L1506.18 1436.33C1509.18 1435.41 1525.75 1433.45 1529.84 1432.9Z"/><path fill="#9AD587" transform="scale(0.03125 0.03125)" d="M568.489 1437.73L568.258 1433.75C573.596 1428.38 591.426 1444.65 595.123 1449.64C599.841 1456 602.402 1457.02 600.576 1465.08C594.857 1459.36 589.81 1453.84 584.378 1447.84C577.214 1446.19 570.785 1444.11 563.914 1442.51L570.894 1441.6L571.568 1440.62L568.489 1437.73Z"/><path fill="#022F24" transform="scale(0.03125 0.03125)" d="M482.274 1314.67L482.868 1315.72L482.749 1316.28C489.677 1317.33 515.439 1315.88 524.784 1315.93C550.224 1315.96 575.623 1318 600.745 1322.01C752.423 1345.49 913.739 1435.27 1005.47 1559.85C1012.54 1569.57 1019.37 1579.47 1025.95 1589.53C1102.77 1460.21 1247.8 1370.86 1391.23 1334.43C1431.31 1324.18 1472.35 1318.13 1513.69 1316.37C1522.59 1316 1530.83 1315.8 1539.7 1315.93C1547.43 1316.05 1565.43 1318.82 1571.76 1317.12C1586.01 1317.58 1611.65 1322.45 1626.28 1325.06C1720.38 1341.86 1792.42 1375.97 1870.95 1428.51C1865.44 1436.55 1864.93 1431.74 1861.65 1436.67C1804.64 1415.42 1638.01 1370.42 1581.88 1390.67C1575.8 1392.86 1567.32 1395.44 1561.6 1397.99C1548.85 1403.7 1546.99 1408.28 1532.59 1410.82C1529.8 1411.87 1526.3 1413.41 1523.48 1413.8L1522.1 1415.04L1505.61 1420C1498.49 1423.87 1493.03 1426.12 1488.29 1432.78L1487.92 1435.29C1492.15 1439.86 1500.39 1437.33 1506.18 1436.33L1508.46 1436.95C1504.43 1439.11 1496.99 1438.83 1493.63 1439.97C1482.52 1443.7 1471.28 1445.65 1459.87 1448.38C1432.62 1476.88 1408.91 1501.24 1379.84 1528.06C1271.66 1627.88 1156.31 1696.6 1024.09 1759.12C955.02 1726.04 891.139 1693.56 826.552 1651.87C741.876 1597.2 671.664 1535.81 600.576 1465.08C602.402 1457.02 599.841 1456 595.123 1449.64C591.426 1444.65 573.596 1428.38 568.258 1433.75L568.489 1437.73L566.624 1438.43C553.77 1425.74 542.955 1423.48 526.772 1416.61C516.151 1412.18 506.265 1408.25 496.743 1401.62C488.1 1397.53 458.671 1389.62 448.876 1386.74C445.374 1387.19 429.692 1386.98 424.782 1387.12C409.32 1387.54 393.888 1388.72 378.541 1390.65C320.787 1398.43 263.82 1411.22 208.285 1428.88C190.15 1434.52 172.202 1441.1 154.108 1447.05C165.591 1436.18 185.102 1425.71 198.704 1416.89C263.559 1374.85 328.044 1345.29 403.828 1328.82C417.238 1325.91 475.225 1318.23 482.274 1314.67Z"/><path fill="#8FD07A" transform="scale(0.03125 0.03125)" d="M1546.36 1387.12C1560.85 1385.2 1573.95 1385.93 1588.35 1385.61L1587.93 1386.83C1583.41 1388.41 1584.44 1387.34 1581.88 1390.67C1575.8 1392.86 1567.32 1395.44 1561.6 1397.99C1548.85 1403.7 1546.99 1408.28 1532.59 1410.82C1529.8 1411.87 1526.3 1413.41 1523.48 1413.8L1522.1 1415.04L1505.61 1420C1498.49 1423.87 1493.03 1426.12 1488.29 1432.78L1487.92 1435.29C1492.15 1439.86 1500.39 1437.33 1506.18 1436.33L1508.46 1436.95C1504.43 1439.11 1496.99 1438.83 1493.63 1439.97C1482.52 1443.7 1471.28 1445.65 1459.87 1448.38C1432.62 1476.88 1408.91 1501.24 1379.84 1528.06C1271.66 1627.88 1156.31 1696.6 1024.09 1759.12C955.02 1726.04 891.139 1693.56 826.552 1651.87C741.876 1597.2 671.664 1535.81 600.576 1465.08C602.402 1457.02 599.841 1456 595.123 1449.64C591.426 1444.65 573.596 1428.38 568.258 1433.75L568.489 1437.73L566.624 1438.43C553.77 1425.74 542.955 1423.48 526.772 1416.61L542.321 1416.57L542.351 1415.03C540.095 1413.46 537.806 1411.95 535.486 1410.48L535.494 1409.22C539.467 1408.92 543.401 1408.73 546.033 1405.71C555.168 1395.2 563.996 1406.41 574.968 1397.45C766.035 1441.91 901.255 1520.86 1023.44 1676.61C1142.45 1521.19 1317.68 1418.66 1511.48 1391.07C1517.2 1389.83 1525.33 1389.45 1531.36 1389C1536.27 1388.25 1541.41 1387.71 1546.36 1387.12Z"/><path fill="#C5E7BA" transform="scale(0.03125 0.03125)" d="M1546.36 1387.12C1560.85 1385.2 1573.95 1385.93 1588.35 1385.61L1587.93 1386.83C1583.41 1388.41 1584.44 1387.34 1581.88 1390.67C1575.8 1392.86 1567.32 1395.44 1561.6 1397.99C1548.85 1403.7 1546.99 1408.28 1532.59 1410.82C1527.63 1410.34 1521.09 1411.85 1517.83 1410.56L1517.91 1409.54C1528.73 1402.35 1522.99 1405.7 1528.11 1397.53C1529.47 1395.36 1543.25 1388.82 1546.36 1387.12Z"/><path fill="#A8DB97" transform="scale(0.03125 0.03125)" d="M1531.36 1389C1536.27 1388.25 1541.41 1387.71 1546.36 1387.12C1543.25 1388.82 1529.47 1395.36 1528.11 1397.53C1522.99 1405.7 1528.73 1402.35 1517.91 1409.54L1517.83 1410.56C1521.09 1411.85 1527.63 1410.34 1532.59 1410.82C1529.8 1411.87 1526.3 1413.41 1523.48 1413.8L1522.1 1415.04L1505.61 1420C1503.32 1419.76 1501.46 1419.42 1499.2 1419.02C1499.27 1415.93 1506.25 1413.61 1507.43 1410.53C1509.3 1405.67 1497.49 1403.04 1495.58 1396.75C1502.33 1393.11 1506.21 1396.26 1511.48 1391.07C1517.2 1389.83 1525.33 1389.45 1531.36 1389Z"/><path fill="#A8DB97" transform="scale(0.03125 0.03125)" d="M514.569 1388.69C532.367 1389.69 557.341 1393.87 574.968 1397.45C563.996 1406.41 555.168 1395.2 546.033 1405.71C543.401 1408.73 539.467 1408.92 535.494 1409.22L535.486 1410.48C537.806 1411.95 540.095 1413.46 542.351 1415.03L542.321 1416.57L526.772 1416.61C516.151 1412.18 506.265 1408.25 496.743 1401.62C503.879 1401.78 516.963 1401.81 519.637 1393.54C517.495 1389.81 518.469 1391.07 514.569 1388.69Z"/><path fill="#C5E7BA" transform="scale(0.03125 0.03125)" d="M448.876 1386.74C456.192 1382.85 504.454 1386.18 514.569 1388.69C518.469 1391.07 517.495 1389.81 519.637 1393.54C516.963 1401.81 503.879 1401.78 496.743 1401.62C488.1 1397.53 458.671 1389.62 448.876 1386.74Z"/><path fill="#8FD07A" transform="scale(0.03125 0.03125)" d="M1024.07 1494.96C1082.36 1418.82 1148.95 1362.69 1235.5 1320.28C1330.51 1273.94 1435.1 1250.6 1540.8 1252.17C1555.25 1252.49 1585.4 1253.3 1598.2 1257.68C1594.46 1264.15 1567.47 1312.33 1568.09 1315.82C1569.32 1316.3 1570.51 1316.85 1571.76 1317.12C1565.43 1318.82 1547.43 1316.05 1539.7 1315.93C1530.83 1315.8 1522.59 1316 1513.69 1316.37C1472.35 1318.13 1431.31 1324.18 1391.23 1334.43C1247.8 1370.86 1102.77 1460.21 1025.95 1589.53C1019.37 1579.47 1012.54 1569.57 1005.47 1559.85C913.739 1435.27 752.423 1345.49 600.745 1322.01C575.623 1318 550.224 1315.96 524.784 1315.93C515.439 1315.88 489.677 1317.33 482.749 1316.28L482.868 1315.72L482.274 1314.67C473.968 1301.68 465 1290.05 458.852 1275.82C456.291 1269.9 453.26 1263.9 450.527 1258.03C453.844 1256.28 470.378 1254.95 475.056 1254.57C528.675 1250.07 582.652 1252.54 635.633 1261.93C779.721 1287.79 939.344 1373.08 1024.07 1494.96Z"/><path fill="#D5EECD" transform="scale(0.03125 0.03125)" d="M860.105 1201.58L869.071 1210.53C901.067 1244.97 936.326 1286.04 957.707 1327.89C958.591 1332.27 959.777 1334.97 957.811 1338.49C950.751 1337.13 941.471 1319.62 932.331 1314.1C925.744 1309.2 906.026 1287.18 898.886 1279.68C895.805 1272.37 866.554 1245.55 860.115 1241.22C858.643 1237.89 860.475 1236.66 862.328 1234.06L861.696 1230.12C859.797 1224.73 858.553 1218.3 857.27 1212.67L857.625 1213.02L851.303 1208.58L852.918 1203.87C855.987 1201.42 855.544 1202.18 860.105 1201.58Z"/><path fill="#C5E7BA" transform="scale(0.03125 0.03125)" d="M860.105 1201.58L869.071 1210.53C864.796 1211.91 864.643 1211.16 862.538 1214.06C863.445 1217.19 866.209 1218.86 868.836 1221.08C872.482 1229.95 882 1233.69 886.077 1244.34L885.122 1245.64C873.118 1244.67 870.494 1235.92 860.115 1241.22C858.643 1237.89 860.475 1236.66 862.328 1234.06L861.696 1230.12C859.797 1224.73 858.553 1218.3 857.27 1212.67L857.625 1213.02L851.303 1208.58L852.918 1203.87C855.987 1201.42 855.544 1202.18 860.105 1201.58Z"/><path fill="white" transform="scale(0.03125 0.03125)" d="M933.926 1300.66C936.337 1301.55 937.11 1302.07 939.352 1303.37C941.929 1306.66 941.637 1308.61 942.065 1312.99C934.732 1309.27 934.506 1309.08 933.926 1300.66Z"/><path fill="#9AD587" transform="scale(0.03125 0.03125)" d="M1130.31 1269.99C1136.01 1267.21 1144.8 1255.71 1148.31 1250.46L1149.99 1249.68C1152.91 1251.13 1153.68 1252.63 1153.23 1256.05L1152.07 1257.05L1150.42 1256.36L1149.74 1254.33L1147.76 1254.64C1144.37 1259.79 1149.02 1264.03 1145 1268.07C1144.1 1266.71 1143.19 1265.47 1142.06 1264.29C1139.73 1266.33 1139.36 1268.53 1138.35 1271.51C1138.97 1274.08 1138.72 1274.28 1140.65 1275.96C1143.27 1271.45 1142.71 1268.95 1147.94 1269.16C1151.57 1268.51 1150.26 1269.43 1152.55 1267.21C1151.59 1265.1 1151.47 1264.9 1151 1262.64L1152.53 1261.22C1168 1258.96 1162.91 1256.01 1176.38 1249.67C1171.81 1254.52 1164.44 1262.31 1161.23 1267.85C1149.09 1281.21 1135.31 1293.04 1123.37 1306.12C1098.56 1333.29 1080.02 1364.16 1061.59 1395.78C1060.98 1381.37 1098.03 1316.89 1107.54 1303.07C1110.73 1295.62 1124.81 1276.39 1130.31 1269.99Z"/><path fill="#A8DB97" transform="scale(0.03125 0.03125)" d="M1130.31 1269.99C1136.01 1267.21 1144.8 1255.71 1148.31 1250.46L1149.99 1249.68C1152.91 1251.13 1153.68 1252.63 1153.23 1256.05L1152.07 1257.05L1150.42 1256.36L1149.74 1254.33L1147.76 1254.64C1144.37 1259.79 1149.02 1264.03 1145 1268.07C1144.1 1266.71 1143.19 1265.47 1142.06 1264.29C1139.73 1266.33 1139.36 1268.53 1138.35 1271.51C1138.97 1274.08 1138.72 1274.28 1140.65 1275.96C1143.27 1271.45 1142.71 1268.95 1147.94 1269.16C1148.59 1270.45 1149.96 1272.4 1149.37 1273.3C1141.46 1285.41 1126.81 1297.23 1116.94 1307.49C1111.37 1313.28 1111.11 1315.88 1105.11 1320.41C1101.98 1321.05 1103.26 1321.42 1100.98 1320.07C1102.65 1311.31 1106.64 1313.56 1107.54 1303.07C1110.73 1295.62 1124.81 1276.39 1130.31 1269.99Z"/><path fill="#A8DB97" transform="scale(0.03125 0.03125)" d="M841.56 1215.24C839.808 1214.55 840.635 1215.05 839.435 1213C841.07 1209.26 839.923 1210.96 843.639 1208.19C847.391 1209.33 847.532 1209.08 851.303 1208.58L857.625 1213.02L857.27 1212.67C858.553 1218.3 859.797 1224.73 861.696 1230.12L862.328 1234.06C860.475 1236.66 858.643 1237.89 860.115 1241.22C866.554 1245.55 895.805 1272.37 898.886 1279.68C869.33 1253.43 855.511 1242.41 822.963 1219.83C823.78 1214.21 824.87 1215.05 829.806 1212.31L832.224 1213.49C831.852 1216.58 831.358 1217.5 832.801 1220.18C836.394 1221.98 841.616 1224.06 844.036 1219.67L841.56 1215.24Z"/><path fill="#9AD587" transform="scale(0.03125 0.03125)" d="M841.56 1215.24C839.808 1214.55 840.635 1215.05 839.435 1213C841.07 1209.26 839.923 1210.96 843.639 1208.19C847.391 1209.33 847.532 1209.08 851.303 1208.58L857.625 1213.02L857.27 1212.67C858.553 1218.3 859.797 1224.73 861.696 1230.12C860.483 1232.05 858.636 1234.98 856.386 1235.32C850.829 1223.43 847.667 1231.79 842.181 1226.07C843.761 1224.36 847.726 1224.71 851.053 1224.18L852.063 1221.99C851.719 1218.26 849.847 1212.13 845.245 1212.4L844.419 1213.56C848.793 1214.89 847.723 1213.87 849.943 1217.03C849.957 1219.64 850.317 1220.98 848.908 1223.08L847.12 1222.08C845.166 1218.58 844.641 1217.79 841.56 1215.24Z"/><path fill="#9AD587" transform="scale(0.03125 0.03125)" d="M429.212 1118.12C432.228 1121.57 432.529 1122.03 433.699 1126.45C432.938 1130.54 430.869 1131.21 427.039 1133.86C425.944 1136.72 426.015 1135.27 427.068 1138.36C435.333 1143.38 446.361 1136.92 436.946 1155.64C429.712 1157.84 417.948 1162.07 410.797 1162.4L408.895 1161.33C409.481 1158.78 409.323 1159.1 410.367 1156.71L412.052 1153.52C417.692 1141.68 423.412 1129.88 429.212 1118.12Z"/><path fill="#D5EECD" transform="scale(0.03125 0.03125)" d="M412.052 1153.52C418.872 1150.32 419.003 1144.54 424.687 1144.82C431.133 1151.03 420.767 1161.78 412.56 1158.91L410.367 1156.71L412.052 1153.52Z"/><path fill="#A8DB97" transform="scale(0.03125 0.03125)" d="M932.331 1314.1C941.471 1319.62 950.751 1337.13 957.811 1338.49C959.777 1334.97 958.591 1332.27 957.707 1327.89C964.733 1339.13 972.101 1353.97 977.254 1366.44L973.388 1370.19C959.361 1348.74 946.661 1334.07 932.331 1314.1Z"/><path fill="white" fill-opacity="0.031372551" transform="scale(0.03125 0.03125)" d="M1505.61 1420L1522.1 1415.04C1521.65 1418.86 1521.53 1419.64 1519.89 1423.09L1520.46 1425.07C1525.05 1424.11 1526.64 1420.25 1531 1419.55L1531.8 1420.36L1528.2 1422.47C1528.11 1427.53 1527.77 1428.5 1529.84 1432.9C1525.75 1433.45 1509.18 1435.41 1506.18 1436.33C1500.39 1437.33 1492.15 1439.86 1487.92 1435.29L1488.29 1432.78C1493.03 1426.12 1498.49 1423.87 1505.61 1420Z"/><path fill="#113F32" fill-opacity="0.96078432" transform="scale(0.03125 0.03125)" d="M1870.95 1428.51C1883.07 1435.99 1893.3 1440.99 1902.18 1452.15C1891.93 1447.18 1873 1439.91 1861.65 1436.67C1864.93 1431.74 1865.44 1436.55 1870.95 1428.51Z"/><path fill="white" fill-opacity="0.019607844" transform="scale(0.03125 0.03125)" d="M1703.05 958.403C1702.49 953.675 1702.16 948.626 1704.47 944.354L1706.48 943.923C1708.19 949.519 1709.78 954.412 1711.77 959.92C1708.39 958.604 1707.8 958.975 1704.35 958.566L1703.05 958.403Z"/></svg>